#!OML:ASF G:\JayActor3\Patient Classification 1\Patient 1\Session 5\male.ASF
:FULLY-SPECIFIED
:DEGREES
700
root 1.23151 16.7281 -11.741 -410.771 76.138 -402.98
lowerback 11.5117 -1.99933 10.7993
upperback 2.43602 -1.14613 1.6796
thorax -4.06996 -0.620286 -4.13434
lowerneck -0.40789 -1.77149 1.10671
upperneck 2.26867 -2.42185 3.3032
head 0.789305 -1.15967 0.807577
rclavicle -4.18535e-014 6.55989e-015
rhumerus -39.4902 -9.22869 -83.4282
rradius 24.0766
rwrist 8.62202
rhand -19.3222 -11.4198
rfingers 7.12502
rthumb 6.99414 -41.2842
lclavicle -4.18535e-014 6.55989e-015
lhumerus -36.4455 30.5415 67.6794
lradius 7.32198
lwrist -4.68616
lhand -22.8752 14.649
lfingers 7.12502
lthumb 3.5636 44.599
rfemur 20.3725 -0.602484 39.9431
rtibia -3.49861e-014
rfoot -14.4196 -4.96305
rtoes 5.6558
lfemur -62.997 1.56088 -17.8134
ltibia 82.9162
lfoot -24.2039 5.12902
ltoes -21.6362
701
root 1.34668 16.7057 -11.7227 -409.773 75.6348 -402.168
lowerback 11.2014 -1.93296 11.0843
upperback 2.39447 -1.06415 1.71696
thorax -3.93335 -0.57851 -4.27028
lowerneck -0.367791 -1.74655 1.11539
upperneck 2.29123 -2.38805 3.28646
head 0.788752 -1.14287 0.801509
rclavicle 1.6906e-014 -3.10104e-014
rhumerus -39.5097 -9.13233 -83.5253
rradius 24.0783
rwrist 8.57075
rhand -19.2843 -11.3808
rfingers 7.12502
rthumb 7.03069 -41.244
lclavicle 1.6906e-014 -3.10104e-014
lhumerus -36.7297 30.688 67.4488
lradius 7.34037
lwrist -4.84138
lhand -22.8698 14.6054
lfingers 7.12502
lthumb 3.56886 44.5553
rfemur 20.6768 -0.280982 40.2347
rtibia -2.8625e-014
rfoot -14.4001 -5.16565
rtoes 5.80194
lfemur -60.8636 1.92508 -17.951
ltibia 78.6785
lfoot -24.4298 5.14822
ltoes -21.994
702
root 1.46406 16.6827 -11.7038 -408.827 75.1177 -401.406
lowerback 10.8835 -1.86702 11.3667
upperback 2.35644 -0.985894 1.75885
thorax -3.78842 -0.537525 -4.39879
lowerneck -0.342032 -1.72394 1.11753
upperneck 2.32127 -2.3579 3.26794
head 0.793031 -1.12774 0.795818
rclavicle -6.02566e-015 -3.27995e-014
rhumerus -39.5258 -9.02904 -83.6122
rradius 24.0899
rwrist 8.51687
rhand -19.231 -11.3716
rfingers 7.12502
rthumb 7.08218 -41.2331
lclavicle -6.02566e-015 -3.27995e-014
lhumerus -37.0337 30.8493 67.2086
lradius 7.34743
lwrist -5.04202
lhand -22.912 14.5543
lfingers 7.12502
lthumb 3.52804 44.5048
rfemur 20.9901 0.0476122 40.5361
rtibia 3.02153e-014
rfoot -14.3176 -5.37805
rtoes 6.11182
lfemur -58.7274 2.29855 -18.0304
ltibia 74.4436
lfoot -24.6535 5.02406
ltoes -22.2322
703
root 1.58351 16.6583 -11.6843 -407.957 74.5913 -400.702
lowerback 10.5696 -1.8044 11.6494
upperback 2.33058 -0.91382 1.8025
thorax -3.63283 -0.497983 -4.524
lowerneck -0.336126 -1.70449 1.11544
upperneck 2.34999 -2.33244 3.24946
head 0.800354 -1.11487 0.79066
rclavicle -2.67365e-014 -1.03368e-014
rhumerus -39.5315 -8.93969 -83.6844
rradius 24.1096
rwrist 8.48572
rhand -19.1755 -11.368
rfingers 7.12502
rthumb 7.13577 -41.2277
lclavicle -2.67365e-014 -1.03368e-014
lhumerus -37.3405 31.0238 66.9627
lradius 7.33728
lwrist -5.28618
lhand -22.9688 14.5249
lfingers 7.12502
lthumb 3.47319 44.4764
rfemur 20.13 0.364355 40.8731
rtibia 2.24845
rfoot -15.2096 -5.37395
rtoes 6.59548
lfemur -56.5861 2.65648 -18.0413
ltibia 70.2384
lfoot -24.8843 4.74715
ltoes -22.4052
704
root 1.70505 16.6318 -11.6644 -407.136 74.056 -400.03
lowerback 10.2651 -1.74301 11.9317
upperback 2.31656 -0.844692 1.84445
thorax -3.46963 -0.458437 -4.64954
lowerneck -0.341817 -1.687 1.10876
upperneck 2.3705 -2.3097 3.23458
head 0.807237 -1.10343 0.787287
rclavicle 7.14693e-015 -7.15625e-015
rhumerus -39.5306 -8.86144 -83.7466
rradius 24.1388
rwrist 8.47797
rhand -19.1229 -11.3843
rfingers 7.12502
rthumb 7.18648 -41.2423
lclavicle 7.14693e-015 -7.15625e-015
lhumerus -37.6489 31.2061 66.7103
lradius 7.31076
lwrist -5.56833
lhand -23.0298 14.497
lfingers 7.12502
lthumb 3.41433 44.4494
rfemur 19.5814 0.686758 41.1946
rtibia 3.96043
rfoot -15.7957 -5.44477
rtoes 7.17667
lfemur -54.4499 2.97776 -17.9767
ltibia 66.0931
lfoot -25.1076 4.35119
ltoes -22.566
